<?xml version="1.0" encoding="UTF-8" standalone="no"?>
<!DOCTYPE svg PUBLIC "-//W3C//DTD SVG 1.1//EN" "http://www.w3.org/Graphics/SVG/1.1/DTD/svg11.dtd">
<svg width="100%" height="100%" viewBox="0 0 736 736" version="1.1" xmlns="http://www.w3.org/2000/svg" xmlns:xlink="http://www.w3.org/1999/xlink" xml:space="preserve" xmlns:serif="http://www.serif.com/" style="fill-rule:evenodd;clip-rule:evenodd;stroke-linejoin:round;stroke-miterlimit:2;">
    <g transform="matrix(0.17777,0,0,-0.17777,-287.594178,867.439365)">
        <g transform="matrix(1.035953,0,0,1.035953,-68.392016,-201.518721)">
            <g transform="matrix(9.479522,0,0,-7.515816,241.9213,5837.616598)">
                <path d="M374.287,177.802C487.39,184.872 494.349,256.036 512.201,317.725C532.337,387.309 496.187,512.759 512.237,559.202C535.156,625.517 594.608,658.391 596.764,688.568C597.684,701.44 597.531,711.201 597,718L130,718C129.814,717.258 126.416,682.535 133.87,676.401C276.062,559.403 178.695,453.868 213.121,320.254C224.975,212.116 283.738,172.142 374.287,177.802Z" style="fill:white;"/>
            </g>
            <path d="M3610,4623C3309,4603 3089,4552 2890,4457C2597,4317 2344,4029 2226,3702C2110,3378 2087,2927 2160,2415C2214,2037 2211,1802 2149,1614C2125,1541 2044,1401 1964,1293C1849,1140 1636,935 1331,685L1209,585L1441,579L1548,652C1679,742 2002,1057 2103,1195C2237,1377 2315,1538 2347,1695C2378,1847 2372,2139 2332,2420C2289,2723 2280,2838 2285,3010C2300,3520 2414,3837 2679,4100C2789,4209 2885,4273 3027,4331C3233,4416 3429,4452 3680,4452C3874,4453 3961,4443 4127,4400C4365,4339 4525,4253 4670,4109C4957,3825 5069,3497 5071,2938C5071,2774 5066,2703 5035,2465C4992,2126 4984,1989 4999,1845C5025,1587 5090,1435 5276,1190C5361,1078 5546,888 5615,840C5641,822 5730,756 5812,693L5962,579L6098,582L6235,585L6150,643C5870,834 5770,913 5623,1059C5428,1253 5294,1432 5231,1585C5154,1770 5144,2015 5199,2410C5269,2913 5247,3369 5139,3676C5040,3959 4862,4201 4635,4363C4519,4445 4299,4536 4115,4578C3985,4608 3724,4631 3610,4623Z" style="fill-rule:nonzero;"/>
        </g>
        <g transform="matrix(1.594519,-0,0,1.594519,-1695.661405,-1865.809095)">
            <path d="M2762,3477C2724,3463 2675,3419 2655,3381C2633,3337 2627,3208 2645,3163C2678,3084 2743,3040 2824,3040C2945,3040 3020,3126 3020,3265C3020,3431 2902,3527 2762,3477Z" style="fill-rule:nonzero;"/>
        </g>
        <g transform="matrix(1.594519,-0,0,1.594519,166.290642,-1871.434328)">
            <path d="M2762,3477C2724,3463 2675,3419 2655,3381C2633,3337 2627,3208 2645,3163C2678,3084 2743,3040 2824,3040C2945,3040 3020,3126 3020,3265C3020,3431 2902,3527 2762,3477Z" style="fill-rule:nonzero;"/>
        </g>
        <g>
            <g transform="matrix(5.915402,0,0,-7.073968,1548.117311,5180.081863)">
                <path d="M419.955,278.617C464.481,352.851 539.732,351.506 531.612,446.86L217.708,442.455C186.913,354.98 294.1,360.127 328.312,274.213L419.955,278.617Z" style="fill:rgb(239,119,3);"/>
            </g>
            <g transform="matrix(1.035953,0,0,1.035953,-68.392016,-201.518721)">
                <path d="M3540,3405C3360,3364 3222,3243 3118,3035C3099,2997 3075,2941 3065,2912C3056,2883 3043,2857 3036,2856C3030,2854 2999,2848 2968,2842C2804,2811 2667,2685 2625,2525C2598,2418 2610,2318 2665,2210C2696,2149 2792,2060 2865,2024C2865,2024 2903.833,2001.739 2925,1995C2980.894,1977.204 3649,1992 3649,1992C4292,1990 4379,1991 4429,2006C4510,2029 4557,2056 4617,2112C4787,2274 4791,2553 4627,2723C4570,2781 4453,2839 4376,2847C4330,2852 4317,2857 4310,2874C4228,3077 4190,3144 4107,3236C4043,3306 3961,3360 3873,3391C3795,3418 3629,3425 3540,3405ZM3832,3214C3873,3200 3902,3178 3965,3115C4053,3027 4100,2943 4142,2800C4156,2752 4173,2715 4191,2698C4216,2672 4225,2670 4298,2670C4364,2670 4385,2666 4426,2644C4493,2609 4525,2576 4550,2517C4589,2426 4567,2311 4498,2247C4453,2206 4425,2189 4383,2179C4362,2175 4040,2170 3667,2170C3001,2169 2989,2169 2942,2190C2877,2219 2834,2264 2810,2327C2771,2432 2792,2523 2873,2597C2932,2651 2986,2670 3076,2670C3164,2670 3197,2698 3215,2790C3246,2947 3390,3156 3500,3202C3593,3242 3737,3247 3832,3214Z" style="fill-rule:nonzero;"/>
            </g>
        </g>
    </g>
</svg>
